{"title":"Rowdee Rathore 2012 Hindi nHD Bluray Hi10p 720p...Hon3y","uid":7644979,"size":2663655717,"categoryP":"video","categoryS":"hd___movies","magnet":"?xt=urn:btih:6c138ec6c56441f16acb992c75bcd47107e09cfe&amp;dn=Rowdee+Rathore+2012+Hindi+nHD+Bluray+Hi10p+720p...Hon3y&amp;tr=udp%3A%2F%2Ftracker.openbittorrent.com%3A80&amp;tr=udp%3A%2F%2Fopen.demonii.com%3A1337&amp;tr=udp%3A%2F%2Ftracker.coppersurfer.tk%3A6969&amp;tr=udp%3A%2F%2Fexodus.desync.com%3A6969","seeders":0,"leechers":0,"uploader":"honey8ee","files":-1,"time":1347881245,"description":"What is Hi10P ?\n\nHi10P is the advanced version of the normal x264. This gives more quality for the same size. \nYou have the ability to watch Ultra Quality movies with the new Hi10P encodes.\n\nHi10P needs Updated, Advanced video players. \n\ni recommend VLC or Media Player Classic because it's pretty easy.\nBut, you can select any of your choice.(if problem to play then intsall k-lite codecs pack)\n\n\n\n &lt;a href=&quot;\nhttp://www.imdb.com/title/tt2077833/&quot; rel=&quot;nofollow&quot; target=&quot;_NEW&quot;&gt;\nhttp://www.imdb.com/title/tt2077833/&lt;/a&gt;\n &lt;a href=&quot;\nhttp://en.wikipedia.org/wiki/Rowdy_Rathore&quot; rel=&quot;nofollow&quot; target=&quot;_NEW&quot;&gt;\nhttp://en.wikipedia.org/wiki/Rowdy_Rathore&lt;/a&gt;\n\n\nFormat                                   : Matroska\nFormat version                           : Version 2\nFile size                                : 2.46 GiB\nDuration                                 : 2h 23mn\nOverall bit rate                         : 2 449 Kbps\n\n\nVideo\nID                                       : 1\nFormat                                   : AVC\nFormat/Info                              : Advanced Video Codec\nFormat profile                           : High &lt;a class=&quot;__cf_email__&quot; href=&quot;/cdn-cgi/l/email-protection&quot; data-cfemail=&quot;2f1e1f6f631b011e&quot;&gt;[email&amp;#160;protected]&lt;/a&gt;&lt;script cf-hash='f9e31' type=&quot;text/javascript&quot;&gt;\n/* &lt;![CDATA[ */!function(){try{var t=&quot;currentScript&quot;in document?document.currentScript:function(){for(var t=document.getElementsByTagName(&quot;script&quot;),e=t.length;e--;)if(t[e].getAttribute(&quot;cf-hash&quot;))return t[e]}();if(t&amp;&amp;t.previousSibling){var e,r,n,i,c=t.previousSibling,a=c.getAttribute(&quot;data-cfemail&quot;);if(a){for(e=&quot;&quot;,r=parseInt(a.substr(0,2),16),n=2;a.length-n;n+=2)i=parseInt(a.substr(n,2),16)^r,e+=String.fromCharCode(i);e=document.createTextNode(e),c.parentNode.replaceChild(e,c)}}}catch(u){}}();/* ]]&gt; */&lt;/script&gt;\nFormat settings, CABAC                   : Yes\nFormat settings, ReFrames                : 4 frames\nMuxing mode                              : Header stripping\nCodec ID                                 : V_MPEG4/ISO/AVC\nDuration                                 : 2h 23mn\nBit rate                                 : 2 000 Kbps\nWidth                                    : 1 280 pixels\nHeight                                   : 544 pixels\nDisplay aspect ratio                     : 2.35:1\nFrame rate                               : 24.000 fps\nColor space                              : YUV\nChroma subsampling                       : 4:2:0\nBit depth                                : 10 bits\nStream size                              : 1.96 GiB (80%)\n\n\nAudio\nID                                       : 2\nFormat                                   : AC-3\nBit rate mode                            : Constant\nBit rate                                 : 448 Kbps\nChannel(s)                               : 6 channels\nChannel positions                        : Front: L C R, Side: L R, LFE\nSampling rate                            : 48.0 KHz\nBit depth                                : 16 bits\nCompression mode                         : Lossy\nStream size                              : 460 MiB (18%)\nLanguage                                 : Hindi\nSource                                   : 1080p DDR THANKS\n\n &lt;a href=&quot;\nhttp://www.shotpix.com/images/48453325274608369028.png&quot; rel=&quot;nofollow&quot; target=&quot;_NEW&quot;&gt;\nhttp://www.shotpix.com/images/48453325274608369028.png&lt;/a&gt;\n &lt;a href=&quot;\nhttp://www.shotpix.com/images/68870709990086946114.png&quot; rel=&quot;nofollow&quot; target=&quot;_NEW&quot;&gt;\nhttp://www.shotpix.com/images/68870709990086946114.png&lt;/a&gt;\n &lt;a href=&quot;\nhttp://www.shotpix.com/images/56042582415963656142.png&quot; rel=&quot;nofollow&quot; target=&quot;_NEW&quot;&gt;\nhttp://www.shotpix.com/images/56042582415963656142.png&lt;/a&gt;\n &lt;a href=&quot;\nhttp://www.shotpix.com/images/64832894052209654708.png&quot; rel=&quot;nofollow&quot; target=&quot;_NEW&quot;&gt;\nhttp://www.shotpix.com/images/64832894052209654708.png&lt;/a&gt;\n &lt;a href=&quot;\nhttp://www.shotpix.com/images/23153471936198741530.png&quot; rel=&quot;nofollow&quot; target=&quot;_NEW&quot;&gt;\nhttp://www.shotpix.com/images/23153471936198741530.png&lt;/a&gt;\n &lt;a href=&quot;\nhttp://www.shotpix.com/images/53711882461628786934.png&quot; rel=&quot;nofollow&quot; target=&quot;_NEW&quot;&gt;\nhttp://www.shotpix.com/images/53711882461628786934.png&lt;/a&gt;\n &lt;a href=&quot;\nhttp://www.shotpix.com/images/25409611506691412625.png&quot; rel=&quot;nofollow&quot; target=&quot;_NEW&quot;&gt;\nhttp://www.shotpix.com/images/25409611506691412625.png&lt;/a&gt;\n &lt;a href=&quot;\nhttp://www.shotpix.com/images/08739499358771694426.png&quot; rel=&quot;nofollow&quot; target=&quot;_NEW&quot;&gt;\nhttp://www.shotpix.com/images/08739499358771694426.png&lt;/a&gt;\n &lt;a href=&quot;\nhttp://www.shotpix.com/images/51231870666312504951.png&quot; rel=&quot;nofollow&quot; target=&quot;_NEW&quot;&gt;\nhttp://www.shotpix.com/images/51231870666312504951.png&lt;/a&gt;\n &lt;a href=&quot;\nhttp://www.shotpix.com/images/79029321153044536813.png&quot; rel=&quot;nofollow&quot; target=&quot;_NEW&quot;&gt;\nhttp://www.shotpix.com/images/79029321153044536813.png&lt;/a&gt;\n\n\n                                Check the sample First","torrent":{"xt":"urn:btih:6c138ec6c56441f16acb992c75bcd47107e09cfe","amp;dn":"Rowdee+Rathore+2012+Hindi+nHD+Bluray+Hi10p+720p...Hon3y","amp;tr":["udp%3A%2F%2Ftracker.openbittorrent.com%3A80","udp%3A%2F%2Fopen.demonii.com%3A1337","udp%3A%2F%2Ftracker.coppersurfer.tk%3A6969","udp%3A%2F%2Fexodus.desync.com%3A6969"],"infoHash":"6c138ec6c56441f16acb992c75bcd47107e09cfe","infoHashBuffer":{"type":"Buffer","data":[108,19,142,198,197,100,65,241,106,203,153,44,117,188,212,113,7,224,156,254]},"announce":[],"urlList":[]}}